# Blender v2.78 (sub 0) OBJ File: 'TrainTunnel.blend'
# www.blender.org
v -2.000000 1.414124 -2.000000
v 1.999999 1.414125 -2.000000
v -2.000000 1.218102 -1.990370
v 1.999999 1.218103 -1.990370
v -2.000000 1.023968 -1.961571
v 1.999999 1.023969 -1.961571
v -2.000000 0.833591 -1.913881
v 1.999999 0.833592 -1.913881
v -2.000000 0.648805 -1.847759
v 1.999999 0.648806 -1.847759
v -2.000000 0.471390 -1.763843
v 2.000000 0.471391 -1.763843
v -2.000000 0.303053 -1.662939
v 2.000000 0.303054 -1.662940
v -2.000000 0.145417 -1.546021
v 2.000000 0.145418 -1.546021
v -2.000000 -0.000001 -1.414214
v 2.000000 0.000000 -1.414214
v -2.000000 -0.000000 1.414214
v 2.000000 0.000001 1.414214
v -2.000000 0.145418 1.546021
v 2.000000 0.145419 1.546021
v -2.000000 0.303054 1.662940
v 2.000000 0.303055 1.662939
v -2.000000 0.471391 1.763843
v 2.000000 0.471392 1.763843
v -2.000000 0.648807 1.847759
v 2.000000 0.648807 1.847759
v -2.000000 0.833593 1.913881
v 2.000000 0.833593 1.913881
v -2.000000 1.023970 1.961571
v 2.000000 1.023970 1.961570
v -2.000000 1.218104 1.990370
v 2.000000 1.218104 1.990369
v -2.000000 1.414126 2.000000
v 2.000000 1.414127 2.000000
v -2.000000 1.610148 1.990369
v 2.000000 1.610149 1.990369
v -2.000000 1.804282 1.961570
v 2.000000 1.804283 1.961570
v -2.000000 1.994659 1.913880
v 2.000000 1.994660 1.913880
v -2.000000 2.179445 1.847758
v 2.000000 2.179446 1.847758
v -2.000000 2.356860 1.763842
v 2.000000 2.356861 1.763841
v -2.000000 2.525197 1.662938
v 2.000000 2.525198 1.662938
v -2.000000 2.682833 1.546020
v 2.000000 2.682834 1.546019
v -2.000000 2.828251 1.414212
v 1.999999 2.828252 1.414212
v -2.000000 2.960049 1.268785
v 1.999999 2.960050 1.268785
v -2.000000 3.076960 1.111139
v 1.999999 3.076961 1.111139
v -2.000000 3.177857 0.942793
v 1.999999 3.177858 0.942792
v -2.000000 3.261768 0.765366
v 1.999999 3.261769 0.765366
v -2.000000 3.327885 0.580569
v 1.999999 3.327886 0.580569
v -2.000000 3.375572 0.390181
v 1.999999 3.375573 0.390180
v -2.000000 3.404369 0.196035
v 1.999999 3.404370 0.196034
v -2.000000 3.413999 0.000001
v 1.999999 3.414000 0.000000
v -2.000000 3.404369 -0.196033
v 1.999999 3.404370 -0.196034
v -2.000000 3.375572 -0.390179
v 1.999999 3.375573 -0.390180
v -2.000000 3.327886 -0.580567
v 1.999999 3.327887 -0.580568
v -2.000000 3.261769 -0.765365
v 1.999999 3.261770 -0.765365
v -2.000000 3.177858 -0.942791
v 1.999999 3.177859 -0.942792
v -2.000000 3.076961 -1.111138
v 1.999999 3.076962 -1.111138
v -2.000000 2.960051 -1.268784
v 1.999999 2.960052 -1.268784
v -2.000000 2.828252 -1.414211
v 1.999999 2.828253 -1.414211
v -2.000000 2.682835 -1.546018
v 1.999999 2.682836 -1.546019
v -2.000000 2.525199 -1.662936
v 1.999999 2.525200 -1.662937
v -2.000000 2.356863 -1.763840
v 1.999999 2.356864 -1.763841
v -2.000000 2.179448 -1.847757
v 1.999999 2.179449 -1.847757
v -2.000000 1.994663 -1.913879
v 1.999999 1.994664 -1.913879
v -2.000000 1.804287 -1.961569
v 1.999999 1.804288 -1.961570
v -2.000000 1.610153 -1.990369
v 1.999999 1.610154 -1.990369
vt 0.5117 0.5000
vt 1.0000 0.0000
vt 1.0000 0.5000
vt 0.5117 0.0000
vt 0.7026 1.0000
vt 0.7365 0.5000
vt 0.7365 1.0000
vt 0.6689 1.0000
vt 0.7026 0.5000
vt 0.6357 1.0000
vt 0.6689 0.5000
vt 0.6032 1.0000
vt 0.6357 0.5000
vt 0.5719 1.0000
vt 0.6032 0.5000
vt 0.5421 1.0000
vt 0.5719 0.5000
vt 0.5139 1.0000
vt 0.5421 0.5000
vt 0.4877 1.0000
vt 0.5139 0.5000
vt 0.4637 1.0000
vt 0.4877 0.5000
vt 0.4877 1.0000
vt 0.4375 1.0000
vt 0.4637 0.5000
vt 0.4094 1.0000
vt 0.4375 0.5000
vt 0.3795 1.0000
vt 0.4094 0.5000
vt 0.3482 1.0000
vt 0.3795 0.5000
vt 0.3158 1.0000
vt 0.3482 0.5000
vt 0.2825 1.0000
vt 0.3158 0.5000
vt 0.2488 1.0000
vt 0.2825 0.5000
vt 0.2149 0.5000
vt 0.2488 0.5000
vt 0.2149 1.0000
vt 0.1812 0.5000
vt 0.1812 1.0000
vt 0.1480 0.5000
vt 0.1156 1.0000
vt 0.1480 1.0000
vt 0.0842 1.0000
vt 0.1156 0.5000
vt 0.0544 1.0000
vt 0.0842 0.5000
vt 0.0262 1.0000
vt 0.0544 0.5000
vt 0.0000 0.5000
vt 0.0262 0.5000
vt 0.4877 0.5000
vt 0.5117 0.0000
vt 0.5117 0.5000
vt 0.4615 0.5000
vt 0.4877 0.0000
vt 0.4334 0.5000
vt 0.4615 0.0000
vt 0.4035 0.5000
vt 0.4334 0.0000
vt 0.3722 0.5000
vt 0.4035 0.0000
vt 0.3397 0.5000
vt 0.3722 0.0000
vt 0.3065 0.5000
vt 0.3397 0.0000
vt 0.2728 0.5000
vt 0.3065 0.0000
vt 0.2389 0.5000
vt 0.2728 0.0000
vt 0.2052 0.5000
vt 0.2389 0.0000
vt 0.1719 0.5000
vt 0.2052 0.0000
vt 0.1395 0.5000
vt 0.1719 0.0000
vt 0.1082 0.5000
vt 0.1395 0.0000
vt 0.0783 0.5000
vt 0.1082 0.0000
vt 0.0502 0.5000
vt 0.0783 0.0000
vt 0.0240 0.5000
vt 0.0502 0.0000
vt 0.0000 0.0000
vt 0.0240 0.0000
vt 0.9252 1.0000
vt 0.9514 0.5000
vt 0.9514 1.0000
vt 0.8971 1.0000
vt 0.9252 0.5000
vt 0.8672 1.0000
vt 0.8971 0.5000
vt 0.8359 1.0000
vt 0.8672 0.5000
vt 0.8035 1.0000
vt 0.8359 0.5000
vt 0.7702 1.0000
vt 0.8035 0.5000
vt 0.7702 0.5000
vt 0.4877 0.5000
vt 0.0000 1.0000
vt 0.0000 0.5000
vn -0.0000 1.0000 -0.0000
vn 0.0000 0.0980 0.9952
vn 0.0000 0.0000 1.0000
vn 0.0000 0.1951 0.9808
vn 0.0000 0.2903 0.9569
vn 0.0000 0.3827 0.9239
vn 0.0000 0.4714 0.8819
vn 0.0000 0.5556 0.8314
vn 0.0000 0.6344 0.7730
vn 0.0000 0.9142 0.4052
vn 0.0000 0.6344 -0.7730
vn 0.0000 0.9142 -0.4052
vn 0.0000 0.5556 -0.8314
vn 0.0000 0.4714 -0.8819
vn 0.0000 0.3827 -0.9239
vn 0.0000 0.2903 -0.9569
vn 0.0000 0.1951 -0.9808
vn 0.0000 0.0980 -0.9952
vn 0.0000 0.0000 -1.0000
vn 0.0000 -0.0980 -0.9952
vn 0.0000 -0.1951 -0.9808
vn 0.0000 -0.2903 -0.9569
vn 0.0000 -0.3827 -0.9239
vn 0.0000 -0.4714 -0.8819
vn 0.0000 -0.5556 -0.8314
vn 0.0000 -0.6344 -0.7730
vn 0.0000 -0.7071 -0.7071
vn 0.0000 -0.7730 -0.6344
vn 0.0000 -0.8315 -0.5555
vn 0.0000 -0.8819 -0.4714
vn 0.0000 -0.9239 -0.3826
vn 0.0000 -0.9569 -0.2903
vn 0.0000 -0.9808 -0.1951
vn 0.0000 -0.9952 -0.0980
vn 0.0000 -1.0000 0.0000
vn 0.0000 -0.9952 0.0980
vn 0.0000 -0.9808 0.1951
vn 0.0000 -0.9569 0.2903
vn 0.0000 -0.9239 0.3826
vn 0.0000 -0.8819 0.4714
vn 0.0000 -0.8315 0.5555
vn 0.0000 -0.7730 0.6344
vn 0.0000 -0.7071 0.7071
vn 0.0000 -0.6344 0.7730
vn 0.0000 -0.5556 0.8314
vn 0.0000 -0.4714 0.8819
vn 0.0000 -0.3827 0.9239
vn 0.0000 -0.2903 0.9569
vn 0.0000 -0.1951 0.9808
vn 0.0000 -0.0980 0.9952
s off
f 19/1/1 18/2/1 17/3/1
f 19/1/1 20/4/1 18/2/1
s 1
f 3/5/2 2/6/3 1/7/3
f 5/8/4 4/9/2 3/5/2
f 7/10/5 6/11/4 5/8/4
f 9/12/6 8/13/5 7/10/5
f 11/14/7 10/15/6 9/12/6
f 13/16/8 12/17/7 11/14/7
f 15/18/9 14/19/8 13/16/8
f 17/20/10 16/21/9 15/18/9
f 21/22/11 20/23/12 19/24/12
f 23/25/13 22/26/11 21/22/11
f 25/27/14 24/28/13 23/25/13
f 27/29/15 26/30/14 25/27/14
f 29/31/16 28/32/15 27/29/15
f 31/33/17 30/34/16 29/31/16
f 33/35/18 32/36/17 31/33/17
f 35/37/19 34/38/18 33/35/18
f 35/37/19 38/39/20 36/40/19
f 37/41/20 40/42/21 38/39/20
f 39/43/21 42/44/22 40/42/21
f 43/45/23 42/44/22 41/46/22
f 45/47/24 44/48/23 43/45/23
f 47/49/25 46/50/24 45/47/24
f 49/51/26 48/52/25 47/49/25
f 49/51/26 52/53/27 50/54/26
f 53/55/28 52/56/27 51/57/27
f 55/58/29 54/59/28 53/55/28
f 57/60/30 56/61/29 55/58/29
f 59/62/31 58/63/30 57/60/30
f 61/64/32 60/65/31 59/62/31
f 63/66/33 62/67/32 61/64/32
f 65/68/34 64/69/33 63/66/33
f 67/70/35 66/71/34 65/68/34
f 69/72/36 68/73/35 67/70/35
f 71/74/37 70/75/36 69/72/36
f 73/76/38 72/77/37 71/74/37
f 75/78/39 74/79/38 73/76/38
f 77/80/40 76/81/39 75/78/39
f 79/82/41 78/83/40 77/80/40
f 81/84/42 80/85/41 79/82/41
f 83/86/43 82/87/42 81/84/42
f 83/86/43 86/88/44 84/89/43
f 87/90/45 86/91/44 85/92/44
f 89/93/46 88/94/45 87/90/45
f 91/95/47 90/96/46 89/93/46
f 93/97/48 92/98/47 91/95/47
f 95/99/49 94/100/48 93/97/48
f 97/101/50 96/102/49 95/99/49
f 1/7/3 98/103/50 97/101/50
f 3/5/2 4/9/2 2/6/3
f 5/8/4 6/11/4 4/9/2
f 7/10/5 8/13/5 6/11/4
f 9/12/6 10/15/6 8/13/5
f 11/14/7 12/17/7 10/15/6
f 13/16/8 14/19/8 12/17/7
f 15/18/9 16/21/9 14/19/8
f 17/20/10 18/104/10 16/21/9
f 21/22/11 22/26/11 20/23/12
f 23/25/13 24/28/13 22/26/11
f 25/27/14 26/30/14 24/28/13
f 27/29/15 28/32/15 26/30/14
f 29/31/16 30/34/16 28/32/15
f 31/33/17 32/36/17 30/34/16
f 33/35/18 34/38/18 32/36/17
f 35/37/19 36/40/19 34/38/18
f 35/37/19 37/41/20 38/39/20
f 37/41/20 39/43/21 40/42/21
f 39/43/21 41/46/22 42/44/22
f 43/45/23 44/48/23 42/44/22
f 45/47/24 46/50/24 44/48/23
f 47/49/25 48/52/25 46/50/24
f 49/51/26 50/54/26 48/52/25
f 49/51/26 51/105/27 52/53/27
f 53/55/28 54/59/28 52/56/27
f 55/58/29 56/61/29 54/59/28
f 57/60/30 58/63/30 56/61/29
f 59/62/31 60/65/31 58/63/30
f 61/64/32 62/67/32 60/65/31
f 63/66/33 64/69/33 62/67/32
f 65/68/34 66/71/34 64/69/33
f 67/70/35 68/73/35 66/71/34
f 69/72/36 70/75/36 68/73/35
f 71/74/37 72/77/37 70/75/36
f 73/76/38 74/79/38 72/77/37
f 75/78/39 76/81/39 74/79/38
f 77/80/40 78/83/40 76/81/39
f 79/82/41 80/85/41 78/83/40
f 81/84/42 82/87/42 80/85/41
f 83/86/43 84/89/43 82/87/42
f 83/86/43 85/106/44 86/88/44
f 87/90/45 88/94/45 86/91/44
f 89/93/46 90/96/46 88/94/45
f 91/95/47 92/98/47 90/96/46
f 93/97/48 94/100/48 92/98/47
f 95/99/49 96/102/49 94/100/48
f 97/101/50 98/103/50 96/102/49
f 1/7/3 2/6/3 98/103/50
