# Blender v2.79 (sub 0) OBJ File: 'TrainTunnel.blend'
# www.blender.org
v -2.000000 1.414124 -2.000000
v 1.999999 1.414125 -2.000000
v -2.000000 1.218102 -1.990370
v 1.999999 1.218103 -1.990370
v -2.000000 1.023968 -1.961571
v 1.999999 1.023969 -1.961571
v -2.000000 0.833591 -1.913881
v 1.999999 0.833592 -1.913881
v -2.000000 0.648805 -1.847759
v 1.999999 0.648806 -1.847759
v -2.000000 0.471390 -1.763843
v 2.000000 0.471391 -1.763843
v -2.000000 0.303053 -1.662939
v 2.000000 0.303054 -1.662940
v -2.000000 0.145417 -1.546021
v 2.000000 0.145418 -1.546021
v -2.000000 -0.000001 -1.414214
v 2.000000 0.000000 -1.414214
v -2.000000 -0.000000 1.414214
v 2.000000 0.000001 1.414214
v -2.000000 0.145418 1.546021
v 2.000000 0.145419 1.546021
v -2.000000 0.303054 1.662940
v 2.000000 0.303055 1.662939
v -2.000000 0.471391 1.763843
v 2.000000 0.471392 1.763843
v -2.000000 0.648807 1.847759
v 2.000000 0.648807 1.847759
v -2.000000 0.833593 1.913881
v 2.000000 0.833593 1.913881
v -2.000000 1.023970 1.961571
v 2.000000 1.023970 1.961570
v -2.000000 1.218104 1.990370
v 2.000000 1.218104 1.990369
v -2.000000 1.414126 2.000000
v 2.000000 1.414127 2.000000
v -2.000000 1.610148 1.990369
v 2.000000 1.610149 1.990369
v -2.000000 1.804282 1.961570
v 2.000000 1.804283 1.961570
v -2.000000 1.994659 1.913880
v 2.000000 1.994660 1.913880
v -2.000000 2.179445 1.847758
v 2.000000 2.179446 1.847758
v -2.000000 2.356860 1.763842
v 2.000000 2.356861 1.763841
v -2.000000 2.525197 1.662938
v 2.000000 2.525198 1.662938
v -2.000000 2.682833 1.546020
v 2.000000 2.682834 1.546019
v -2.000000 2.828251 1.414212
v 1.999999 2.828252 1.414212
v -2.000000 2.960049 1.268785
v 1.999999 2.960050 1.268785
v -2.000000 3.076960 1.111139
v 1.999999 3.076961 1.111139
v -2.000000 3.177857 0.942793
v 1.999999 3.177858 0.942792
v -2.000000 3.261768 0.765366
v 1.999999 3.261769 0.765366
v -2.000000 3.327885 0.580569
v 1.999999 3.327886 0.580569
v -2.000000 3.375572 0.390181
v 1.999999 3.375573 0.390180
v -2.000000 3.404369 0.196035
v 1.999999 3.404370 0.196034
v -2.000000 3.413999 0.000001
v 1.999999 3.414000 0.000000
v -2.000000 3.404369 -0.196033
v 1.999999 3.404370 -0.196034
v -2.000000 3.375572 -0.390179
v 1.999999 3.375573 -0.390180
v -2.000000 3.327886 -0.580567
v 1.999999 3.327887 -0.580568
v -2.000000 3.261769 -0.765365
v 1.999999 3.261770 -0.765365
v -2.000000 3.177858 -0.942791
v 1.999999 3.177859 -0.942792
v -2.000000 3.076961 -1.111138
v 1.999999 3.076962 -1.111138
v -2.000000 2.960051 -1.268784
v 1.999999 2.960052 -1.268784
v -2.000000 2.828252 -1.414211
v 1.999999 2.828253 -1.414211
v -2.000000 2.682835 -1.546018
v 1.999999 2.682836 -1.546019
v -2.000000 2.525199 -1.662936
v 1.999999 2.525200 -1.662937
v -2.000000 2.356863 -1.763840
v 1.999999 2.356864 -1.763841
v -2.000000 2.179448 -1.847757
v 1.999999 2.179449 -1.847757
v -2.000000 1.994663 -1.913879
v 1.999999 1.994664 -1.913879
v -2.000000 1.804287 -1.961569
v 1.999999 1.804288 -1.961570
v -2.000000 1.610153 -1.990369
v 1.999999 1.610154 -1.990369
vt 0.003905 0.594395
vt 0.985731 0.995292
vt 0.003905 0.995292
vt 0.985731 0.594395
vt 0.144841 0.589576
vt 0.165554 0.004048
vt 0.165552 0.589576
vt 0.124130 0.589576
vt 0.144843 0.004048
vt 0.103419 0.589576
vt 0.124132 0.004048
vt 0.082708 0.589576
vt 0.103421 0.004048
vt 0.061997 0.589576
vt 0.082710 0.004048
vt 0.041285 0.589576
vt 0.061998 0.004047
vt 0.020574 0.589575
vt 0.041287 0.004047
vt -0.000138 0.589575
vt 0.020576 0.004047
vt 0.973300 0.589575
vt 0.994008 0.004047
vt 0.994011 0.589575
vt 0.952588 0.589575
vt 0.973296 0.004047
vt 0.931877 0.589576
vt 0.952585 0.004047
vt 0.911166 0.589576
vt 0.931874 0.004048
vt 0.890455 0.589576
vt 0.911163 0.004048
vt 0.869744 0.589576
vt 0.890453 0.004048
vt 0.849033 0.589576
vt 0.869742 0.004048
vt 0.828322 0.589576
vt 0.849031 0.004048
vt 0.807609 0.004048
vt 0.828320 0.004048
vt 0.807611 0.589577
vt 0.786898 0.004049
vt 0.786900 0.589577
vt 0.766187 0.004049
vt 0.745478 0.589577
vt 0.766189 0.589577
vt 0.724767 0.589577
vt 0.745476 0.004049
vt 0.704056 0.589577
vt 0.724765 0.004049
vt 0.683344 0.589577
vt 0.704054 0.004049
vt 0.662632 0.004049
vt 0.683343 0.004049
vt 0.641921 0.589577
vt 0.662633 0.589577
vt 0.621209 0.589577
vt 0.641921 0.004049
vt 0.600497 0.589577
vt 0.621209 0.004049
vt 0.579786 0.589577
vt 0.600497 0.004049
vt 0.559074 0.589577
vt 0.579785 0.004049
vt 0.538361 0.589578
vt 0.559073 0.004049
vt 0.517649 0.589578
vt 0.538361 0.004049
vt 0.496937 0.589578
vt 0.517649 0.004049
vt 0.476225 0.589578
vt 0.496937 0.004049
vt 0.455513 0.589577
vt 0.476225 0.004049
vt 0.434801 0.589577
vt 0.455513 0.004049
vt 0.414089 0.589577
vt 0.434801 0.004049
vt 0.393377 0.589577
vt 0.414089 0.004049
vt 0.372665 0.589577
vt 0.393377 0.004049
vt 0.351953 0.589577
vt 0.372665 0.004049
vt 0.331242 0.589577
vt 0.351953 0.004049
vt 0.310531 0.004049
vt 0.331242 0.004049
vt 0.289819 0.589577
vt 0.310530 0.589577
vt 0.269107 0.589577
vt 0.289820 0.004049
vt 0.248396 0.589577
vt 0.269109 0.004049
vt 0.227685 0.589577
vt 0.248398 0.004049
vt 0.206974 0.589577
vt 0.227687 0.004049
vt 0.186263 0.589576
vt 0.206976 0.004048
vt 0.186266 0.004048
vt -0.000136 0.004047
vn -0.0000 1.0000 -0.0000
vn 0.0000 0.0980 0.9952
vn 0.0000 0.0000 1.0000
vn 0.0000 0.1951 0.9808
vn 0.0000 0.2903 0.9569
vn 0.0000 0.3827 0.9239
vn 0.0000 0.4714 0.8819
vn 0.0000 0.5556 0.8314
vn 0.0000 0.6344 0.7730
vn 0.0000 0.9142 0.4052
vn 0.0000 0.6344 -0.7730
vn 0.0000 0.9142 -0.4052
vn 0.0000 0.5556 -0.8314
vn 0.0000 0.4714 -0.8819
vn 0.0000 0.3827 -0.9239
vn 0.0000 0.2903 -0.9569
vn 0.0000 0.1951 -0.9808
vn 0.0000 0.0980 -0.9952
vn 0.0000 0.0000 -1.0000
vn 0.0000 -0.0980 -0.9952
vn 0.0000 -0.1951 -0.9808
vn 0.0000 -0.2903 -0.9569
vn 0.0000 -0.3827 -0.9239
vn 0.0000 -0.4714 -0.8819
vn 0.0000 -0.5556 -0.8314
vn 0.0000 -0.6344 -0.7730
vn 0.0000 -0.7071 -0.7071
vn 0.0000 -0.7730 -0.6344
vn 0.0000 -0.8315 -0.5555
vn 0.0000 -0.8819 -0.4714
vn 0.0000 -0.9239 -0.3826
vn 0.0000 -0.9569 -0.2903
vn 0.0000 -0.9808 -0.1951
vn 0.0000 -0.9952 -0.0980
vn 0.0000 -1.0000 0.0000
vn 0.0000 -0.9952 0.0980
vn 0.0000 -0.9808 0.1951
vn 0.0000 -0.9569 0.2903
vn 0.0000 -0.9239 0.3826
vn 0.0000 -0.8819 0.4714
vn 0.0000 -0.8315 0.5555
vn 0.0000 -0.7730 0.6344
vn 0.0000 -0.7071 0.7071
vn 0.0000 -0.6344 0.7730
vn 0.0000 -0.5556 0.8314
vn 0.0000 -0.4714 0.8819
vn 0.0000 -0.3827 0.9239
vn 0.0000 -0.2903 0.9569
vn 0.0000 -0.1951 0.9808
vn 0.0000 -0.0980 0.9952
s off
f 19/1/1 18/2/1 17/3/1
f 19/1/1 20/4/1 18/2/1
s 1
f 3/5/2 2/6/3 1/7/3
f 5/8/4 4/9/2 3/5/2
f 7/10/5 6/11/4 5/8/4
f 9/12/6 8/13/5 7/10/5
f 11/14/7 10/15/6 9/12/6
f 13/16/8 12/17/7 11/14/7
f 15/18/9 14/19/8 13/16/8
f 17/20/10 16/21/9 15/18/9
f 21/22/11 20/23/12 19/24/12
f 23/25/13 22/26/11 21/22/11
f 25/27/14 24/28/13 23/25/13
f 27/29/15 26/30/14 25/27/14
f 29/31/16 28/32/15 27/29/15
f 31/33/17 30/34/16 29/31/16
f 33/35/18 32/36/17 31/33/17
f 35/37/19 34/38/18 33/35/18
f 35/37/19 38/39/20 36/40/19
f 37/41/20 40/42/21 38/39/20
f 39/43/21 42/44/22 40/42/21
f 43/45/23 42/44/22 41/46/22
f 45/47/24 44/48/23 43/45/23
f 47/49/25 46/50/24 45/47/24
f 49/51/26 48/52/25 47/49/25
f 49/51/26 52/53/27 50/54/26
f 53/55/28 52/53/27 51/56/27
f 55/57/29 54/58/28 53/55/28
f 57/59/30 56/60/29 55/57/29
f 59/61/31 58/62/30 57/59/30
f 61/63/32 60/64/31 59/61/31
f 63/65/33 62/66/32 61/63/32
f 65/67/34 64/68/33 63/65/33
f 67/69/35 66/70/34 65/67/34
f 69/71/36 68/72/35 67/69/35
f 71/73/37 70/74/36 69/71/36
f 73/75/38 72/76/37 71/73/37
f 75/77/39 74/78/38 73/75/38
f 77/79/40 76/80/39 75/77/39
f 79/81/41 78/82/40 77/79/40
f 81/83/42 80/84/41 79/81/41
f 83/85/43 82/86/42 81/83/42
f 83/85/43 86/87/44 84/88/43
f 87/89/45 86/87/44 85/90/44
f 89/91/46 88/92/45 87/89/45
f 91/93/47 90/94/46 89/91/46
f 93/95/48 92/96/47 91/93/47
f 95/97/49 94/98/48 93/95/48
f 97/99/50 96/100/49 95/97/49
f 1/7/3 98/101/50 97/99/50
f 3/5/2 4/9/2 2/6/3
f 5/8/4 6/11/4 4/9/2
f 7/10/5 8/13/5 6/11/4
f 9/12/6 10/15/6 8/13/5
f 11/14/7 12/17/7 10/15/6
f 13/16/8 14/19/8 12/17/7
f 15/18/9 16/21/9 14/19/8
f 17/20/10 18/102/10 16/21/9
f 21/22/11 22/26/11 20/23/12
f 23/25/13 24/28/13 22/26/11
f 25/27/14 26/30/14 24/28/13
f 27/29/15 28/32/15 26/30/14
f 29/31/16 30/34/16 28/32/15
f 31/33/17 32/36/17 30/34/16
f 33/35/18 34/38/18 32/36/17
f 35/37/19 36/40/19 34/38/18
f 35/37/19 37/41/20 38/39/20
f 37/41/20 39/43/21 40/42/21
f 39/43/21 41/46/22 42/44/22
f 43/45/23 44/48/23 42/44/22
f 45/47/24 46/50/24 44/48/23
f 47/49/25 48/52/25 46/50/24
f 49/51/26 50/54/26 48/52/25
f 49/51/26 51/56/27 52/53/27
f 53/55/28 54/58/28 52/53/27
f 55/57/29 56/60/29 54/58/28
f 57/59/30 58/62/30 56/60/29
f 59/61/31 60/64/31 58/62/30
f 61/63/32 62/66/32 60/64/31
f 63/65/33 64/68/33 62/66/32
f 65/67/34 66/70/34 64/68/33
f 67/69/35 68/72/35 66/70/34
f 69/71/36 70/74/36 68/72/35
f 71/73/37 72/76/37 70/74/36
f 73/75/38 74/78/38 72/76/37
f 75/77/39 76/80/39 74/78/38
f 77/79/40 78/82/40 76/80/39
f 79/81/41 80/84/41 78/82/40
f 81/83/42 82/86/42 80/84/41
f 83/85/43 84/88/43 82/86/42
f 83/85/43 85/90/44 86/87/44
f 87/89/45 88/92/45 86/87/44
f 89/91/46 90/94/46 88/92/45
f 91/93/47 92/96/47 90/94/46
f 93/95/48 94/98/48 92/96/47
f 95/97/49 96/100/49 94/98/48
f 97/99/50 98/101/50 96/100/49
f 1/7/3 2/6/3 98/101/50
